<mxfile host="65bd71144e">
    <diagram id="kZj5woIK-zTp7_ELGvFs" name="Page-1">
        <mxGraphModel dx="799" dy="646" grid="1" gridSize="10" guides="1" tooltips="1" connect="1" arrows="1" fold="1" page="1" pageScale="1" pageWidth="850" pageHeight="1100" background="none" math="0" shadow="0">
            <root>
                <mxCell id="0"/>
                <mxCell id="1" parent="0"/>
                <mxCell id="38" value="" style="whiteSpace=wrap;html=1;glass=0;rounded=0;strokeColor=none;labelBackgroundColor=none;" vertex="1" parent="1">
                    <mxGeometry x="30" y="100" width="700" height="630" as="geometry"/>
                </mxCell>
                <mxCell id="39" value="" style="whiteSpace=wrap;html=1;rounded=0;glass=0;dashed=1;strokeColor=#ecdada;" vertex="1" parent="1">
                    <mxGeometry x="130" y="175" width="350" height="525" as="geometry"/>
                </mxCell>
                <mxCell id="17" style="edgeStyle=none;html=1;exitX=0.5;exitY=0.5;exitDx=0;exitDy=0;exitPerimeter=0;entryX=0;entryY=0.5;entryDx=0;entryDy=0;" parent="1" source="6" target="20" edge="1">
                    <mxGeometry relative="1" as="geometry"/>
                </mxCell>
                <mxCell id="6" value="Customer" style="shape=umlActor;verticalLabelPosition=bottom;verticalAlign=top;html=1;" parent="1" vertex="1">
                    <mxGeometry x="40" y="410" width="40" height="80" as="geometry"/>
                </mxCell>
                <mxCell id="7" value="Bank Manager" style="shape=umlActor;verticalLabelPosition=bottom;verticalAlign=top;html=1;" parent="1" vertex="1">
                    <mxGeometry x="530" y="240" width="40" height="80" as="geometry"/>
                </mxCell>
                <mxCell id="8" value="System" style="shape=umlActor;verticalLabelPosition=bottom;verticalAlign=top;html=1;" parent="1" vertex="1">
                    <mxGeometry x="560" y="400" width="40" height="80" as="geometry"/>
                </mxCell>
                <mxCell id="10" value="Transfer Money" style="ellipse;shape=umlEntity;whiteSpace=wrap;html=1;" parent="1" vertex="1">
                    <mxGeometry x="155" y="480" width="80" height="40" as="geometry"/>
                </mxCell>
                <mxCell id="18" style="edgeStyle=none;html=1;exitX=0.5;exitY=0.5;exitDx=0;exitDy=0;exitPerimeter=0;entryX=1;entryY=0;entryDx=0;entryDy=0;" parent="1" source="7" target="11" edge="1">
                    <mxGeometry relative="1" as="geometry">
                        <mxPoint x="270" y="385" as="targetPoint"/>
                    </mxGeometry>
                </mxCell>
                <mxCell id="11" value="Inquire Balance" style="ellipse;shape=umlEntity;whiteSpace=wrap;html=1;" parent="1" vertex="1">
                    <mxGeometry x="165" y="300" width="80" height="40" as="geometry"/>
                </mxCell>
                <mxCell id="21" style="edgeStyle=none;html=1;exitX=0.5;exitY=0.5;exitDx=0;exitDy=0;entryX=0;entryY=0;entryDx=0;entryDy=0;exitPerimeter=0;" parent="1" source="6" target="19" edge="1">
                    <mxGeometry relative="1" as="geometry"/>
                </mxCell>
                <mxCell id="25" style="edgeStyle=none;html=1;entryX=1;entryY=0.5;entryDx=0;entryDy=0;exitX=0.5;exitY=0.5;exitDx=0;exitDy=0;exitPerimeter=0;" parent="1" source="8" target="13" edge="1">
                    <mxGeometry relative="1" as="geometry">
                        <mxPoint x="600" y="560" as="sourcePoint"/>
                        <mxPoint x="549.9999999999973" y="449.9999999999998" as="targetPoint"/>
                        <Array as="points"/>
                    </mxGeometry>
                </mxCell>
                <mxCell id="13" value="Authentication" style="ellipse;shape=umlEntity;whiteSpace=wrap;html=1;" parent="1" vertex="1">
                    <mxGeometry x="325" y="440" width="100" height="40" as="geometry"/>
                </mxCell>
                <mxCell id="19" value="Withdraw Money" style="ellipse;shape=umlEntity;whiteSpace=wrap;html=1;" parent="1" vertex="1">
                    <mxGeometry x="155" y="570" width="80" height="40" as="geometry"/>
                </mxCell>
                <mxCell id="20" value="Deposit Money" style="ellipse;shape=umlEntity;whiteSpace=wrap;html=1;" parent="1" vertex="1">
                    <mxGeometry x="155" y="390" width="80" height="40" as="geometry"/>
                </mxCell>
                <mxCell id="27" style="edgeStyle=none;html=1;exitX=0.5;exitY=0.5;exitDx=0;exitDy=0;exitPerimeter=0;entryX=0;entryY=0.5;entryDx=0;entryDy=0;" edge="1" parent="1" source="6" target="11">
                    <mxGeometry relative="1" as="geometry">
                        <mxPoint x="425" y="329.5" as="sourcePoint"/>
                        <mxPoint x="180" y="329.5" as="targetPoint"/>
                    </mxGeometry>
                </mxCell>
                <mxCell id="30" style="edgeStyle=none;html=1;exitX=0.5;exitY=0.5;exitDx=0;exitDy=0;entryX=0;entryY=0;entryDx=0;entryDy=0;exitPerimeter=0;" edge="1" parent="1" source="6" target="10">
                    <mxGeometry relative="1" as="geometry">
                        <mxPoint x="260" y="420" as="sourcePoint"/>
                        <mxPoint x="366.71572875253787" y="425.85786437626894" as="targetPoint"/>
                        <Array as="points"/>
                    </mxGeometry>
                </mxCell>
                <mxCell id="50" value="&lt;font style=&quot;font-size: 14px;&quot;&gt;Bank of Miners&lt;/font&gt;" style="text;html=1;align=center;verticalAlign=middle;resizable=0;points=[];autosize=1.5;strokeColor=none;fillColor=none;" vertex="1" parent="1">
                    <mxGeometry x="180" y="130" width="100" height="30" as="geometry"/>
                </mxCell>
                <mxCell id="55" value="&amp;lt;&amp;lt;Include&amp;gt;&amp;gt;" style="html=1;verticalAlign=bottom;labelBackgroundColor=none;endArrow=open;endFill=0;dashed=1;exitX=1;exitY=0.5;exitDx=0;exitDy=0;entryX=0;entryY=1;entryDx=0;entryDy=0;" edge="1" parent="1" source="10" target="13">
                    <mxGeometry x="-0.4731" y="-29" width="160" relative="1" as="geometry">
                        <mxPoint x="270" y="550" as="sourcePoint"/>
                        <mxPoint x="359.9999999999975" y="550" as="targetPoint"/>
                        <mxPoint as="offset"/>
                    </mxGeometry>
                </mxCell>
                <mxCell id="63" value="&amp;lt;&amp;lt;Include&amp;gt;&amp;gt;" style="html=1;verticalAlign=bottom;labelBackgroundColor=none;endArrow=open;endFill=0;dashed=1;exitX=1;exitY=0.5;exitDx=0;exitDy=0;entryX=0.5;entryY=1;entryDx=0;entryDy=0;" edge="1" parent="1" source="19" target="13">
                    <mxGeometry x="-0.2086" y="-38" width="160" relative="1" as="geometry">
                        <mxPoint x="210" y="530" as="sourcePoint"/>
                        <mxPoint x="335" y="419.9999999999998" as="targetPoint"/>
                        <mxPoint y="1" as="offset"/>
                    </mxGeometry>
                </mxCell>
                <mxCell id="64" value="&amp;lt;&amp;lt;Include&amp;gt;&amp;gt;" style="html=1;verticalAlign=bottom;labelBackgroundColor=none;endArrow=open;endFill=0;dashed=1;exitX=1;exitY=0.5;exitDx=0;exitDy=0;entryX=0;entryY=0;entryDx=0;entryDy=0;" edge="1" parent="1" source="20" target="13">
                    <mxGeometry x="-0.2367" y="-23" width="160" relative="1" as="geometry">
                        <mxPoint x="240" y="410" as="sourcePoint"/>
                        <mxPoint x="365" y="299.9999999999998" as="targetPoint"/>
                        <mxPoint as="offset"/>
                    </mxGeometry>
                </mxCell>
                <mxCell id="66" value="&amp;lt;&amp;lt;Include&amp;gt;&amp;gt;" style="html=1;verticalAlign=bottom;labelBackgroundColor=none;endArrow=open;endFill=0;dashed=1;exitX=1;exitY=0.5;exitDx=0;exitDy=0;entryX=0.5;entryY=0;entryDx=0;entryDy=0;" edge="1" parent="1" source="11" target="13">
                    <mxGeometry x="-0.3738" y="-31" width="160" relative="1" as="geometry">
                        <mxPoint x="290" y="310" as="sourcePoint"/>
                        <mxPoint x="420" y="440" as="targetPoint"/>
                        <mxPoint y="-1" as="offset"/>
                    </mxGeometry>
                </mxCell>
            </root>
        </mxGraphModel>
    </diagram>
</mxfile>